<svg viewBox="0 0 720 340" xmlns="http://www.w3.org/2000/svg" width="720">
  <defs>
    <linearGradient id="bg1" x1="0%" y1="0%" x2="100%" y2="100%">
      <stop offset="0%" stop-color="#F0DB4F" stop-opacity="0.13"/>
      <stop offset="100%" stop-color="#ff9f43" stop-opacity="0.03"/>
    </linearGradient>
    <linearGradient id="bg2" x1="0%" y1="0%" x2="100%" y2="100%">
      <stop offset="0%" stop-color="#58a6ff" stop-opacity="0.13"/>
      <stop offset="100%" stop-color="#a29bfe" stop-opacity="0.03"/>
    </linearGradient>
    <linearGradient id="bg3" x1="0%" y1="0%" x2="100%" y2="100%">
      <stop offset="0%" stop-color="#3fb950" stop-opacity="0.13"/>
      <stop offset="100%" stop-color="#00cec9" stop-opacity="0.03"/>
    </linearGradient>
    <linearGradient id="bg4" x1="0%" y1="0%" x2="100%" y2="100%">
      <stop offset="0%" stop-color="#f7768e" stop-opacity="0.13"/>
      <stop offset="100%" stop-color="#fd79a8" stop-opacity="0.03"/>
    </linearGradient>
    <linearGradient id="bd1" x1="0%" y1="0%" x2="100%" y2="100%">
      <stop offset="0%" stop-color="#F0DB4F" stop-opacity="0.9"/>
      <stop offset="100%" stop-color="#ff9f43" stop-opacity="0.3"/>
    </linearGradient>
    <linearGradient id="bd2" x1="0%" y1="0%" x2="100%" y2="100%">
      <stop offset="0%" stop-color="#58a6ff" stop-opacity="0.9"/>
      <stop offset="100%" stop-color="#a29bfe" stop-opacity="0.3"/>
    </linearGradient>
    <linearGradient id="bd3" x1="0%" y1="0%" x2="100%" y2="100%">
      <stop offset="0%" stop-color="#3fb950" stop-opacity="0.9"/>
      <stop offset="100%" stop-color="#00cec9" stop-opacity="0.3"/>
    </linearGradient>
    <linearGradient id="bd4" x1="0%" y1="0%" x2="100%" y2="100%">
      <stop offset="0%" stop-color="#f7768e" stop-opacity="0.9"/>
      <stop offset="100%" stop-color="#fd79a8" stop-opacity="0.3"/>
    </linearGradient>
    <linearGradient id="socbg" x1="0%" y1="0%" x2="100%" y2="0%">
      <stop offset="0%" stop-color="#161b22" stop-opacity="1"/>
      <stop offset="100%" stop-color="#1a2030" stop-opacity="1"/>
    </linearGradient>
  </defs>

  <!-- ── MAIN BG ── -->
  <rect width="720" height="340" rx="16" fill="#0d1117"/>

  <!-- subtle glow blobs -->
  <ellipse cx="180" cy="100" rx="120" ry="80" fill="#F0DB4F" fill-opacity="0.03"/>
  <ellipse cx="540" cy="100" rx="120" ry="80" fill="#58a6ff" fill-opacity="0.03"/>
  <ellipse cx="180" cy="200" rx="120" ry="70" fill="#3fb950" fill-opacity="0.03"/>
  <ellipse cx="540" cy="200" rx="120" ry="70" fill="#f7768e" fill-opacity="0.03"/>

  <!-- ══ ABOUT CARDS ══ -->

  <!-- CARD 1: Contact -->
  <rect x="12" y="14" width="336" height="92" rx="12" fill="url(#bg1)"/>
  <rect x="12" y="14" width="336" height="92" rx="12" fill="none" stroke="url(#bd1)" stroke-width="1.2"/>
  <circle cx="48" cy="60" r="20" fill="#F0DB4F18"/>
  <text x="48" y="67" font-size="20" text-anchor="middle" font-family="sans-serif">✉️</text>
  <text x="78" y="38" font-size="8.5" font-family="monospace" fill="#F0DB4F" letter-spacing="2.5" font-weight="700">CONTACT</text>
  <line x1="78" y1="43" x2="210" y2="43" stroke="#F0DB4F" stroke-width="0.6" stroke-opacity="0.35"/>
  <text x="78" y="61" font-size="12.5" font-family="monospace" fill="#e6edf3">mrkumarrr12@gmail.com</text>
  <text x="78" y="80" font-size="10" font-family="monospace" fill="#6e7681">Open for opportunities 👋</text>

  <!-- CARD 2: Ask me about -->
  <rect x="372" y="14" width="336" height="92" rx="12" fill="url(#bg2)"/>
  <rect x="372" y="14" width="336" height="92" rx="12" fill="none" stroke="url(#bd2)" stroke-width="1.2"/>
  <circle cx="408" cy="60" r="20" fill="#58a6ff18"/>
  <text x="408" y="67" font-size="20" text-anchor="middle" font-family="sans-serif">💬</text>
  <text x="438" y="38" font-size="8.5" font-family="monospace" fill="#58a6ff" letter-spacing="2.5" font-weight="700">ASK ME ABOUT</text>
  <line x1="438" y1="43" x2="598" y2="43" stroke="#58a6ff" stroke-width="0.6" stroke-opacity="0.35"/>
  <rect x="438" y="50" width="96" height="19" rx="9.5" fill="#F0DB4F10" stroke="#F0DB4F" stroke-width="0.8" stroke-opacity="0.5"/>
  <text x="486" y="63" font-size="10" font-family="monospace" fill="#F0DB4F" text-anchor="middle">Collaboration</text>
  <rect x="540" y="50" width="90" height="19" rx="9.5" fill="#3fb95010" stroke="#3fb950" stroke-width="0.8" stroke-opacity="0.5"/>
  <text x="585" y="63" font-size="10" font-family="monospace" fill="#3fb950" text-anchor="middle">Tech Support</text>
  <rect x="438" y="74" width="76" height="19" rx="9.5" fill="#58a6ff10" stroke="#58a6ff" stroke-width="0.8" stroke-opacity="0.5"/>
  <text x="476" y="87" font-size="10" font-family="monospace" fill="#58a6ff" text-anchor="middle">Full Stack</text>

  <!-- CARD 3: How to reach -->
  <rect x="12" y="118" width="336" height="86" rx="12" fill="url(#bg3)"/>
  <rect x="12" y="118" width="336" height="86" rx="12" fill="none" stroke="url(#bd3)" stroke-width="1.2"/>
  <circle cx="48" cy="161" r="20" fill="#3fb95018"/>
  <text x="48" y="168" font-size="20" text-anchor="middle" font-family="sans-serif">📫</text>
  <text x="78" y="140" font-size="8.5" font-family="monospace" fill="#3fb950" letter-spacing="2.5" font-weight="700">HOW TO REACH ME</text>
  <line x1="78" y1="145" x2="255" y2="145" stroke="#3fb950" stroke-width="0.6" stroke-opacity="0.35"/>
  <text x="78" y="163" font-size="12.5" font-family="monospace" fill="#e6edf3">Drop a mail or</text>
  <text x="78" y="183" font-size="12.5" font-family="monospace" fill="#e6edf3">DM on socials below 👇</text>

  <!-- CARD 4: Fun fact -->
  <rect x="372" y="118" width="336" height="86" rx="12" fill="url(#bg4)"/>
  <rect x="372" y="118" width="336" height="86" rx="12" fill="none" stroke="url(#bd4)" stroke-width="1.2"/>
  <circle cx="408" cy="161" r="20" fill="#f7768e18"/>
  <text x="408" y="168" font-size="20" text-anchor="middle" font-family="sans-serif">⚡</text>
  <text x="438" y="140" font-size="8.5" font-family="monospace" fill="#f7768e" letter-spacing="2.5" font-weight="700">FUN FACT</text>
  <line x1="438" y1="145" x2="575" y2="145" stroke="#f7768e" stroke-width="0.6" stroke-opacity="0.35"/>
  <text x="438" y="163" font-size="13" font-family="monospace" fill="#f7768e" font-weight="600">I Love Tech</text>
  <text x="438" y="183" font-size="12.5" font-family="monospace" fill="#e6edf3">and Tech Loves Me 🚀</text>

  <!-- ══ DIVIDER ══ -->
  <line x1="24" y1="218" x2="696" y2="218" stroke="#21262d" stroke-width="1"/>
  <text x="360" y="214" font-size="9" font-family="monospace" fill="#3d444d" text-anchor="middle" letter-spacing="3">🌐  SOCIALS</text>

  <!-- ══ SOCIAL BUTTONS ══ -->

  <!-- Gmail -->
  <rect x="14" y="228" width="102" height="36" rx="18" fill="#EA433510" stroke="#EA4335" stroke-width="1" stroke-opacity="0.5"/>
  <text x="34" y="251" font-size="14" font-family="sans-serif">📧</text>
  <text x="54" y="251" font-size="11" font-family="monospace" fill="#EA4335" font-weight="500">Gmail</text>

  <!-- GitHub -->
  <rect x="124" y="228" width="108" height="36" rx="18" fill="#ffffff08" stroke="#ffffff" stroke-width="1" stroke-opacity="0.3"/>
  <text x="144" y="251" font-size="14" font-family="sans-serif">🐙</text>
  <text x="164" y="251" font-size="11" font-family="monospace" fill="#ffffff" font-weight="500">GitHub</text>

  <!-- LinkedIn -->
  <rect x="240" y="228" width="116" height="36" rx="18" fill="#0A66C210" stroke="#0A66C2" stroke-width="1" stroke-opacity="0.5"/>
  <text x="260" y="251" font-size="14" font-family="sans-serif">💼</text>
  <text x="280" y="251" font-size="11" font-family="monospace" fill="#0A66C2" font-weight="500">LinkedIn</text>

  <!-- Instagram -->
  <rect x="364" y="228" width="118" height="36" rx="18" fill="#E4405F10" stroke="#E4405F" stroke-width="1" stroke-opacity="0.5"/>
  <text x="384" y="251" font-size="14" font-family="sans-serif">📸</text>
  <text x="404" y="251" font-size="11" font-family="monospace" fill="#E4405F" font-weight="500">Instagram</text>

  <!-- Twitter -->
  <rect x="490" y="228" width="106" height="36" rx="18" fill="#ffffff08" stroke="#ffffff" stroke-width="1" stroke-opacity="0.25"/>
  <text x="510" y="251" font-size="14" font-family="sans-serif">🐦</text>
  <text x="530" y="251" font-size="11" font-family="monospace" fill="#adbac7" font-weight="500">Twitter</text>

  <!-- Facebook -->
  <rect x="604" y="228" width="112" height="36" rx="18" fill="#1877F210" stroke="#1877F2" stroke-width="1" stroke-opacity="0.5"/>
  <text x="622" y="251" font-size="14" font-family="sans-serif">👤</text>
  <text x="642" y="251" font-size="11" font-family="monospace" fill="#1877F2" font-weight="500">Facebook</text>

  <!-- ── footer ── -->
  <text x="360" y="310" font-size="10" font-family="monospace" fill="#3d444d" text-anchor="middle">// pintu kumar • full stack developer</text>
</svg>
